<svg width="63" height="16" viewBox="0 0 63 16" fill="none" xmlns="http://www.w3.org/2000/svg">
<path d="M6.80909 12.3199H5.31818L8.66818 3.01085H10.2909L13.6409 12.3199H12.15L9.51818 4.70176H9.44545L6.80909 12.3199ZM7.05909 8.67449H11.8955V9.85631H7.05909V8.67449ZM14.8761 14.9381V5.33813H16.2034V6.46995H16.317C16.3958 6.32449 16.5095 6.15631 16.658 5.9654C16.8064 5.77449 17.0125 5.60782 17.2761 5.4654C17.5398 5.31995 17.8883 5.24722 18.3216 5.24722C18.8852 5.24722 19.3883 5.38964 19.8307 5.67449C20.2731 5.95934 20.6201 6.36995 20.8716 6.90631C21.1261 7.44267 21.2534 8.08813 21.2534 8.84267C21.2534 9.59722 21.1277 10.2442 20.8761 10.7836C20.6246 11.3199 20.2792 11.7336 19.8398 12.0245C19.4004 12.3124 18.8989 12.4563 18.3352 12.4563C17.911 12.4563 17.564 12.3851 17.2943 12.2427C17.0277 12.1002 16.8186 11.9336 16.667 11.7427C16.5155 11.5518 16.3989 11.3821 16.317 11.2336H16.2352V14.9381H14.8761ZM16.208 8.82904C16.208 9.31995 16.2792 9.75025 16.4216 10.1199C16.564 10.4896 16.7701 10.779 17.0398 10.9881C17.3095 11.1942 17.6398 11.2972 18.0307 11.2972C18.4367 11.2972 18.7761 11.1896 19.0489 10.9745C19.3216 10.7563 19.5277 10.4609 19.667 10.0881C19.8095 9.7154 19.8807 9.2957 19.8807 8.82904C19.8807 8.36843 19.811 7.95479 19.6716 7.58813C19.5352 7.22146 19.3292 6.93207 19.0534 6.71995C18.7807 6.50782 18.4398 6.40176 18.0307 6.40176C17.6367 6.40176 17.3034 6.50328 17.0307 6.70631C16.761 6.90934 16.5564 7.19267 16.417 7.55631C16.2777 7.91995 16.208 8.34419 16.208 8.82904ZM22.7761 14.9381V5.33813H24.1034V6.46995H24.217C24.2958 6.32449 24.4095 6.15631 24.558 5.9654C24.7064 5.77449 24.9125 5.60782 25.1761 5.4654C25.4398 5.31995 25.7883 5.24722 26.2216 5.24722C26.7852 5.24722 27.2883 5.38964 27.7307 5.67449C28.1731 5.95934 28.5201 6.36995 28.7716 6.90631C29.0261 7.44267 29.1534 8.08813 29.1534 8.84267C29.1534 9.59722 29.0277 10.2442 28.7761 10.7836C28.5246 11.3199 28.1792 11.7336 27.7398 12.0245C27.3004 12.3124 26.7989 12.4563 26.2352 12.4563C25.811 12.4563 25.464 12.3851 25.1943 12.2427C24.9277 12.1002 24.7186 11.9336 24.567 11.7427C24.4155 11.5518 24.2989 11.3821 24.217 11.2336H24.1352V14.9381H22.7761ZM24.108 8.82904C24.108 9.31995 24.1792 9.75025 24.3216 10.1199C24.464 10.4896 24.6701 10.779 24.9398 10.9881C25.2095 11.1942 25.5398 11.2972 25.9307 11.2972C26.3367 11.2972 26.6761 11.1896 26.9489 10.9745C27.2216 10.7563 27.4277 10.4609 27.567 10.0881C27.7095 9.7154 27.7807 9.2957 27.7807 8.82904C27.7807 8.36843 27.711 7.95479 27.5716 7.58813C27.4352 7.22146 27.2292 6.93207 26.9534 6.71995C26.6807 6.50782 26.3398 6.40176 25.9307 6.40176C25.5367 6.40176 25.2034 6.50328 24.9307 6.70631C24.661 6.90934 24.4564 7.19267 24.317 7.55631C24.1777 7.91995 24.108 8.34419 24.108 8.82904ZM35.8625 5.45631C35.814 5.02601 35.614 4.69267 35.2625 4.45631C34.911 4.21692 34.4686 4.09722 33.9352 4.09722C33.5534 4.09722 33.2231 4.15782 32.9443 4.27904C32.6655 4.39722 32.4489 4.56085 32.2943 4.76995C32.1428 4.97601 32.067 5.21085 32.067 5.47449C32.067 5.6957 32.1186 5.88661 32.2216 6.04722C32.3277 6.20782 32.4655 6.34267 32.6352 6.45176C32.808 6.55782 32.9928 6.64722 33.1898 6.71995C33.3867 6.78964 33.5761 6.84722 33.758 6.89267L34.667 7.12904C34.964 7.20176 35.2686 7.30025 35.5807 7.42449C35.8928 7.54873 36.1822 7.71237 36.4489 7.9154C36.7155 8.11843 36.9307 8.36995 37.0943 8.66995C37.261 8.96995 37.3443 9.32904 37.3443 9.74722C37.3443 10.2745 37.208 10.7427 36.9352 11.1518C36.6655 11.5609 36.2731 11.8836 35.758 12.1199C35.2458 12.3563 34.6261 12.4745 33.8989 12.4745C33.2019 12.4745 32.5989 12.3639 32.0898 12.1427C31.5807 11.9215 31.1822 11.6078 30.8943 11.2018C30.6064 10.7927 30.4473 10.3078 30.417 9.74722H31.8261C31.8534 10.0836 31.9625 10.3639 32.1534 10.5881C32.3473 10.8093 32.5943 10.9745 32.8943 11.0836C33.1973 11.1896 33.5292 11.2427 33.8898 11.2427C34.2867 11.2427 34.6398 11.1806 34.9489 11.0563C35.261 10.929 35.5064 10.7533 35.6852 10.529C35.864 10.3018 35.9534 10.0366 35.9534 9.73358C35.9534 9.45782 35.8746 9.23207 35.717 9.05631C35.5625 8.88055 35.3519 8.7351 35.0852 8.61995C34.8216 8.50479 34.5231 8.40328 34.1898 8.3154L33.0898 8.0154C32.3443 7.81237 31.7534 7.51389 31.317 7.11995C30.8837 6.72601 30.667 6.20479 30.667 5.55631C30.667 5.01995 30.8125 4.55176 31.1034 4.15176C31.3943 3.75176 31.7883 3.44116 32.2852 3.21995C32.7822 2.9957 33.3428 2.88358 33.967 2.88358C34.5973 2.88358 35.1534 2.99419 35.6352 3.2154C36.1201 3.43661 36.5019 3.74116 36.7807 4.12904C37.0595 4.51389 37.2049 4.95631 37.217 5.45631H35.8625ZM42.1727 5.33813V6.42904H38.3591V5.33813H42.1727ZM39.3818 3.6654H40.7409V10.2699C40.7409 10.5336 40.7803 10.7321 40.8591 10.8654C40.9379 10.9957 41.0394 11.0851 41.1636 11.1336C41.2909 11.179 41.4288 11.2018 41.5773 11.2018C41.6864 11.2018 41.7818 11.1942 41.8636 11.179C41.9455 11.1639 42.0091 11.1518 42.0545 11.1427L42.3 12.2654C42.2212 12.2957 42.1091 12.326 41.9636 12.3563C41.8182 12.3896 41.6364 12.4078 41.4182 12.4109C41.0606 12.4169 40.7273 12.3533 40.4182 12.2199C40.1091 12.0866 39.8591 11.8806 39.6682 11.6018C39.4773 11.323 39.3818 10.973 39.3818 10.5518V3.6654ZM46.542 12.4609C45.8875 12.4609 45.3163 12.3109 44.8284 12.0109C44.3405 11.7109 43.9617 11.2912 43.692 10.7518C43.4223 10.2124 43.2875 9.58207 43.2875 8.86086C43.2875 8.13661 43.4223 7.50328 43.692 6.96086C43.9617 6.41843 44.3405 5.99722 44.8284 5.69722C45.3163 5.39722 45.8875 5.24722 46.542 5.24722C47.1966 5.24722 47.7678 5.39722 48.2557 5.69722C48.7436 5.99722 49.1223 6.41843 49.392 6.96086C49.6617 7.50328 49.7966 8.13661 49.7966 8.86086C49.7966 9.58207 49.6617 10.2124 49.392 10.7518C49.1223 11.2912 48.7436 11.7109 48.2557 12.0109C47.7678 12.3109 47.1966 12.4609 46.542 12.4609ZM46.5466 11.3199C46.9708 11.3199 47.3223 11.2078 47.6011 10.9836C47.8799 10.7593 48.086 10.4609 48.2193 10.0881C48.3557 9.7154 48.4239 9.30479 48.4239 8.85631C48.4239 8.41086 48.3557 8.00176 48.2193 7.62904C48.086 7.25328 47.8799 6.95176 47.6011 6.72449C47.3223 6.49722 46.9708 6.38358 46.5466 6.38358C46.1193 6.38358 45.7648 6.49722 45.483 6.72449C45.2042 6.95176 44.9966 7.25328 44.8602 7.62904C44.7269 8.00176 44.6602 8.41086 44.6602 8.85631C44.6602 9.30479 44.7269 9.7154 44.8602 10.0881C44.9966 10.4609 45.2042 10.7593 45.483 10.9836C45.7648 11.2078 46.1193 11.3199 46.5466 11.3199ZM51.3136 12.3199V5.33813H52.6273V6.44722H52.7C52.8273 6.07146 53.0515 5.77601 53.3727 5.56086C53.697 5.34267 54.0636 5.23358 54.4727 5.23358C54.5576 5.23358 54.6576 5.23661 54.7727 5.24267C54.8909 5.24873 54.9833 5.25631 55.05 5.2654V6.5654C54.9955 6.55025 54.8985 6.53358 54.7591 6.5154C54.6197 6.49419 54.4803 6.48358 54.3409 6.48358C54.0197 6.48358 53.7333 6.55176 53.4818 6.68813C53.2333 6.82146 53.0364 7.00782 52.8909 7.24722C52.7455 7.48358 52.6727 7.75328 52.6727 8.05631V12.3199H51.3136ZM58.9852 12.4609C58.2973 12.4609 57.7049 12.3139 57.208 12.0199C56.714 11.723 56.3322 11.3063 56.0625 10.7699C55.7958 10.2306 55.6625 9.59873 55.6625 8.87449C55.6625 8.15934 55.7958 7.52904 56.0625 6.98358C56.3322 6.43813 56.708 6.01237 57.1898 5.70631C57.6746 5.40025 58.2413 5.24722 58.8898 5.24722C59.2837 5.24722 59.6655 5.31237 60.0352 5.44267C60.4049 5.57298 60.7367 5.77752 61.0307 6.05631C61.3246 6.3351 61.5564 6.69722 61.7261 7.14267C61.8958 7.5851 61.9807 8.12298 61.9807 8.75631V9.23813H56.4307V8.21995H60.6489C60.6489 7.86237 60.5761 7.5457 60.4307 7.26995C60.2852 6.99116 60.0807 6.77146 59.817 6.61086C59.5564 6.45025 59.2504 6.36995 58.8989 6.36995C58.517 6.36995 58.1837 6.46389 57.8989 6.65176C57.617 6.83661 57.3989 7.07904 57.2443 7.37904C57.0928 7.67601 57.017 7.99873 57.017 8.34722V9.14267C57.017 9.60934 57.0989 10.0063 57.2625 10.3336C57.4292 10.6609 57.661 10.9109 57.958 11.0836C58.2549 11.2533 58.6019 11.3381 58.9989 11.3381C59.2564 11.3381 59.4913 11.3018 59.7034 11.229C59.9155 11.1533 60.0989 11.0412 60.2534 10.8927C60.408 10.7442 60.5261 10.5609 60.608 10.3427L61.8943 10.5745C61.7913 10.9533 61.6064 11.2851 61.3398 11.5699C61.0761 11.8518 60.7443 12.0715 60.3443 12.229C59.9473 12.3836 59.4943 12.4609 58.9852 12.4609Z" fill="#1F2026"/>
</svg>
