<svg width="79" height="16" viewBox="0 0 79 16" fill="none" xmlns="http://www.w3.org/2000/svg">
<path d="M12.8828 5.95176C12.7949 5.67601 12.6767 5.42904 12.5282 5.21085C12.3828 4.98964 12.2085 4.80176 12.0055 4.64722C11.8025 4.48964 11.5707 4.36995 11.3101 4.28813C11.0525 4.20631 10.7691 4.1654 10.4601 4.1654C9.93582 4.1654 9.46309 4.30025 9.04188 4.56995C8.62066 4.83964 8.28733 5.2351 8.04188 5.75631C7.79945 6.27449 7.67824 6.90934 7.67824 7.66086C7.67824 8.4154 7.80097 9.05328 8.04642 9.57449C8.29188 10.0957 8.62824 10.4912 9.05551 10.7609C9.48279 11.0306 9.96915 11.1654 10.5146 11.1654C11.0207 11.1654 11.4616 11.0624 11.8373 10.8563C12.2161 10.6502 12.5085 10.3593 12.7146 9.98358C12.9237 9.60479 13.0282 9.15934 13.0282 8.64722L13.3919 8.7154H10.7282V7.55631H14.3873V8.6154C14.3873 9.39722 14.2207 10.076 13.8873 10.6518C13.557 11.2245 13.0995 11.6669 12.5146 11.979C11.9328 12.2912 11.2661 12.4472 10.5146 12.4472C9.67218 12.4472 8.93279 12.2533 8.29642 11.8654C7.66309 11.4775 7.16915 10.9275 6.8146 10.2154C6.46006 9.50025 6.28279 8.65176 6.28279 7.66995C6.28279 6.92752 6.38582 6.26086 6.59188 5.66995C6.79794 5.07904 7.08733 4.57752 7.46006 4.1654C7.83582 3.75025 8.27673 3.43358 8.78279 3.2154C9.29188 2.99419 9.84794 2.88358 10.451 2.88358C10.954 2.88358 11.4222 2.95782 11.8555 3.10631C12.2919 3.25479 12.6798 3.4654 13.0191 3.73813C13.3616 4.01086 13.6449 4.3351 13.8691 4.71085C14.0934 5.08358 14.2449 5.49722 14.3237 5.95176H12.8828ZM19.0021 12.4609C18.3476 12.4609 17.7763 12.3109 17.2885 12.0109C16.8006 11.7109 16.4218 11.2912 16.1521 10.7518C15.8824 10.2124 15.7476 9.58207 15.7476 8.86086C15.7476 8.13661 15.8824 7.50328 16.1521 6.96086C16.4218 6.41843 16.8006 5.99722 17.2885 5.69722C17.7763 5.39722 18.3476 5.24722 19.0021 5.24722C19.6567 5.24722 20.2279 5.39722 20.7157 5.69722C21.2036 5.99722 21.5824 6.41843 21.8521 6.96086C22.1218 7.50328 22.2567 8.13661 22.2567 8.86086C22.2567 9.58207 22.1218 10.2124 21.8521 10.7518C21.5824 11.2912 21.2036 11.7109 20.7157 12.0109C20.2279 12.3109 19.6567 12.4609 19.0021 12.4609ZM19.0067 11.3199C19.4309 11.3199 19.7824 11.2078 20.0612 10.9836C20.34 10.7593 20.546 10.4609 20.6794 10.0881C20.8157 9.7154 20.8839 9.30479 20.8839 8.85631C20.8839 8.41086 20.8157 8.00176 20.6794 7.62904C20.546 7.25328 20.34 6.95176 20.0612 6.72449C19.7824 6.49722 19.4309 6.38358 19.0067 6.38358C18.5794 6.38358 18.2248 6.49722 17.943 6.72449C17.6642 6.95176 17.4567 7.25328 17.3203 7.62904C17.187 8.00176 17.1203 8.41086 17.1203 8.85631C17.1203 9.30479 17.187 9.7154 17.3203 10.0881C17.4567 10.4609 17.6642 10.7593 17.943 10.9836C18.2248 11.2078 18.5794 11.3199 19.0067 11.3199ZM26.7146 12.4609C26.0601 12.4609 25.4888 12.3109 25.001 12.0109C24.5131 11.7109 24.1343 11.2912 23.8646 10.7518C23.5949 10.2124 23.4601 9.58207 23.4601 8.86086C23.4601 8.13661 23.5949 7.50328 23.8646 6.96086C24.1343 6.41843 24.5131 5.99722 25.001 5.69722C25.4888 5.39722 26.0601 5.24722 26.7146 5.24722C27.3692 5.24722 27.9404 5.39722 28.4282 5.69722C28.9161 5.99722 29.2949 6.41843 29.5646 6.96086C29.8343 7.50328 29.9692 8.13661 29.9692 8.86086C29.9692 9.58207 29.8343 10.2124 29.5646 10.7518C29.2949 11.2912 28.9161 11.7109 28.4282 12.0109C27.9404 12.3109 27.3692 12.4609 26.7146 12.4609ZM26.7192 11.3199C27.1434 11.3199 27.4949 11.2078 27.7737 10.9836C28.0525 10.7593 28.2585 10.4609 28.3919 10.0881C28.5282 9.7154 28.5964 9.30479 28.5964 8.85631C28.5964 8.41086 28.5282 8.00176 28.3919 7.62904C28.2585 7.25328 28.0525 6.95176 27.7737 6.72449C27.4949 6.49722 27.1434 6.38358 26.7192 6.38358C26.2919 6.38358 25.9373 6.49722 25.6555 6.72449C25.3767 6.95176 25.1692 7.25328 25.0328 7.62904C24.8995 8.00176 24.8328 8.41086 24.8328 8.85631C24.8328 9.30479 24.8995 9.7154 25.0328 10.0881C25.1692 10.4609 25.3767 10.7593 25.6555 10.9836C25.9373 11.2078 26.2919 11.3199 26.7192 11.3199ZM34.4135 15.0836C33.8589 15.0836 33.3817 15.0109 32.9817 14.8654C32.5847 14.7199 32.2604 14.5275 32.0089 14.2881C31.7574 14.0487 31.5695 13.7866 31.4453 13.5018L32.6135 13.0199C32.6953 13.1533 32.8044 13.2942 32.9407 13.4427C33.0801 13.5942 33.268 13.723 33.5044 13.829C33.7438 13.9351 34.0513 13.9881 34.4271 13.9881C34.9423 13.9881 35.368 13.8624 35.7044 13.6109C36.0407 13.3624 36.2089 12.9654 36.2089 12.4199V11.0472H36.1226C36.0407 11.1957 35.9226 11.3609 35.768 11.5427C35.6165 11.7245 35.4074 11.8821 35.1407 12.0154C34.8741 12.1487 34.5271 12.2154 34.0998 12.2154C33.5483 12.2154 33.0513 12.0866 32.6089 11.829C32.1695 11.5684 31.821 11.1851 31.5635 10.679C31.3089 10.1699 31.1817 9.54419 31.1817 8.80176C31.1817 8.05934 31.3074 7.42298 31.5589 6.89267C31.8135 6.36237 32.162 5.95631 32.6044 5.67449C33.0468 5.38964 33.5483 5.24722 34.1089 5.24722C34.5423 5.24722 34.8923 5.31995 35.1589 5.4654C35.4256 5.60782 35.6332 5.77449 35.7817 5.9654C35.9332 6.15631 36.0498 6.32449 36.1317 6.46995H36.2317V5.33813H37.5635V12.4745C37.5635 13.0745 37.4241 13.5669 37.1453 13.9518C36.8665 14.3366 36.4892 14.6215 36.0135 14.8063C35.5407 14.9912 35.0074 15.0836 34.4135 15.0836ZM34.3998 11.0881C34.7907 11.0881 35.121 10.9972 35.3907 10.8154C35.6635 10.6306 35.8695 10.3669 36.0089 10.0245C36.1513 9.67904 36.2226 9.2654 36.2226 8.78358C36.2226 8.31389 36.1529 7.90025 36.0135 7.54267C35.8741 7.1851 35.6695 6.90631 35.3998 6.70631C35.1301 6.50328 34.7968 6.40176 34.3998 6.40176C33.9907 6.40176 33.6498 6.50782 33.3771 6.71995C33.1044 6.92904 32.8983 7.21389 32.7589 7.57449C32.6226 7.9351 32.5544 8.33813 32.5544 8.78358C32.5544 9.24116 32.6241 9.64267 32.7635 9.98813C32.9029 10.3336 33.1089 10.6033 33.3817 10.7972C33.6574 10.9912 33.9968 11.0881 34.3998 11.0881ZM40.7453 3.01085V12.3199H39.3862V3.01085H40.7453ZM45.5828 12.4609C44.8949 12.4609 44.3025 12.3139 43.8055 12.0199C43.3116 11.723 42.9298 11.3063 42.6601 10.7699C42.3934 10.2306 42.2601 9.59873 42.2601 8.87449C42.2601 8.15934 42.3934 7.52904 42.6601 6.98358C42.9298 6.43813 43.3055 6.01237 43.7873 5.70631C44.2722 5.40025 44.8388 5.24722 45.4873 5.24722C45.8813 5.24722 46.2631 5.31237 46.6328 5.44267C47.0025 5.57298 47.3343 5.77752 47.6282 6.05631C47.9222 6.3351 48.154 6.69722 48.3237 7.14267C48.4934 7.5851 48.5782 8.12298 48.5782 8.75631V9.23813H43.0282V8.21995H47.2464C47.2464 7.86237 47.1737 7.5457 47.0282 7.26995C46.8828 6.99116 46.6782 6.77146 46.4146 6.61086C46.154 6.45025 45.8479 6.36995 45.4964 6.36995C45.1146 6.36995 44.7813 6.46389 44.4964 6.65176C44.2146 6.83661 43.9964 7.07904 43.8419 7.37904C43.6904 7.67601 43.6146 7.99873 43.6146 8.34722V9.14267C43.6146 9.60934 43.6964 10.0063 43.8601 10.3336C44.0267 10.6609 44.2585 10.9109 44.5555 11.0836C44.8525 11.2533 45.1995 11.3381 45.5964 11.3381C45.854 11.3381 46.0888 11.3018 46.301 11.229C46.5131 11.1533 46.6964 11.0412 46.851 10.8927C47.0055 10.7442 47.1237 10.5609 47.2055 10.3427L48.4919 10.5745C48.3888 10.9533 48.204 11.2851 47.9373 11.5699C47.6737 11.8518 47.3419 12.0715 46.9419 12.229C46.5449 12.3836 46.0919 12.4609 45.5828 12.4609ZM53.5828 12.3199V3.01085H56.901C57.6252 3.01085 58.2252 3.14267 58.701 3.40631C59.1767 3.66995 59.5328 4.03055 59.7691 4.48813C60.0055 4.94267 60.1237 5.45479 60.1237 6.02449C60.1237 6.59722 60.004 7.11237 59.7646 7.56995C59.5282 8.02449 59.1707 8.3851 58.6919 8.65176C58.2161 8.9154 57.6176 9.04722 56.8964 9.04722H54.6146V7.85631H56.7691C57.2267 7.85631 57.5979 7.77752 57.8828 7.61995C58.1676 7.45934 58.3767 7.24116 58.5101 6.9654C58.6434 6.68964 58.7101 6.37601 58.7101 6.02449C58.7101 5.67298 58.6434 5.36086 58.5101 5.08813C58.3767 4.8154 58.1661 4.60176 57.8782 4.44722C57.5934 4.29267 57.2176 4.2154 56.751 4.2154H54.9873V12.3199H53.5828ZM63.0203 3.01085V12.3199H61.6612V3.01085H63.0203ZM66.8805 12.4745C66.4381 12.4745 66.0381 12.3927 65.6805 12.229C65.3229 12.0624 65.0396 11.8215 64.8305 11.5063C64.6245 11.1912 64.5214 10.8048 64.5214 10.3472C64.5214 9.95328 64.5972 9.62904 64.7487 9.37449C64.9002 9.11995 65.1048 8.91843 65.3623 8.76995C65.6199 8.62146 65.9078 8.50934 66.226 8.43358C66.5441 8.35783 66.8684 8.30025 67.1987 8.26086C67.6169 8.21237 67.9563 8.17298 68.2169 8.14267C68.4775 8.10934 68.6669 8.05631 68.7851 7.98358C68.9032 7.91086 68.9623 7.79267 68.9623 7.62904V7.59722C68.9623 7.20025 68.8502 6.89267 68.626 6.67449C68.4048 6.45631 68.0745 6.34722 67.6351 6.34722C67.1775 6.34722 66.8169 6.44873 66.5532 6.65176C66.2926 6.85176 66.1123 7.07449 66.0123 7.31995L64.7351 7.02904C64.8866 6.60479 65.1078 6.26237 65.3987 6.00176C65.6926 5.73813 66.0305 5.54722 66.4123 5.42904C66.7941 5.30782 67.1957 5.24722 67.6169 5.24722C67.8957 5.24722 68.1911 5.28055 68.5032 5.34722C68.8184 5.41086 69.1123 5.52904 69.3851 5.70176C69.6608 5.87449 69.8866 6.12146 70.0623 6.44267C70.2381 6.76086 70.326 7.17449 70.326 7.68358V12.3199H68.9987V11.3654H68.9441C68.8563 11.5412 68.7245 11.7139 68.5487 11.8836C68.3729 12.0533 68.1472 12.1942 67.8714 12.3063C67.5957 12.4184 67.2654 12.4745 66.8805 12.4745ZM67.176 11.3836C67.5517 11.3836 67.8729 11.3093 68.1396 11.1609C68.4093 11.0124 68.6138 10.8184 68.7532 10.579C68.8957 10.3366 68.9669 10.0775 68.9669 9.80176V8.90176C68.9184 8.95025 68.8245 8.9957 68.6851 9.03813C68.5487 9.07752 68.3926 9.11237 68.2169 9.14267C68.0411 9.16995 67.8699 9.1957 67.7032 9.21995C67.5366 9.24116 67.3972 9.25934 67.2851 9.27449C67.0214 9.30782 66.7805 9.36389 66.5623 9.44267C66.3472 9.52146 66.1745 9.6351 66.0441 9.78358C65.9169 9.92904 65.8532 10.123 65.8532 10.3654C65.8532 10.7018 65.9775 10.9563 66.226 11.129C66.4745 11.2987 66.7911 11.3836 67.176 11.3836ZM72.7453 14.9381C72.5423 14.9381 72.3574 14.9215 72.1907 14.8881C72.0241 14.8578 71.8998 14.8245 71.818 14.7881L72.1453 13.6745C72.3938 13.7412 72.615 13.7699 72.8089 13.7609C73.0029 13.7518 73.1741 13.679 73.3226 13.5427C73.4741 13.4063 73.6074 13.1836 73.7226 12.8745L73.8907 12.4109L71.3362 5.33813H72.7907L74.5589 10.7563H74.6316L76.3998 5.33813H77.8589L74.9816 13.2518C74.8483 13.6154 74.6786 13.923 74.4726 14.1745C74.2665 14.429 74.021 14.6199 73.7362 14.7472C73.4513 14.8745 73.121 14.9381 72.7453 14.9381Z" fill="#1F2026"/>
</svg>
