<svg width="25" height="24" viewBox="0 0 25 24" fill="none" xmlns="http://www.w3.org/2000/svg">
<path d="M21.4646 11.0543L17.3179 8.69714L14.015 12L17.3179 15.3028L21.4646 12.9457C22.1994 12.531 22.1994 11.4689 21.4646 11.0543Z" fill="url(#paint0_linear_2_44)"/>
<path d="M14.0151 12.0001L4.15018 2.13513C3.95375 2.33156 3.83008 2.59346 3.83008 2.90628V21.0938C3.83008 21.4066 3.95375 21.6758 4.15018 21.8649L14.0151 12.0001Z" fill="url(#paint1_linear_2_44)"/>
<path d="M17.3179 8.6972L5.45965 1.96056C5.00132 1.69865 4.47753 1.81505 4.15015 2.13515L14.0151 12.0001L17.3179 8.6972Z" fill="url(#paint2_linear_2_44)"/>
<path d="M14.0151 12.0001L4.15015 21.865C4.47753 22.1923 5.00132 22.3015 5.45965 22.0396L17.3179 15.3029L14.0151 12.0001Z" fill="url(#paint3_linear_2_44)"/>
<defs>
<linearGradient id="paint0_linear_2_44" x1="14.015" y1="12" x2="22.0176" y2="12" gradientUnits="userSpaceOnUse">
<stop stop-color="#FFBD00"/>
<stop offset="1" stop-color="#FFE000"/>
</linearGradient>
<linearGradient id="paint1_linear_2_44" x1="14.0151" y1="12.0001" x2="3.83008" y2="22.185" gradientUnits="userSpaceOnUse">
<stop stop-color="#00BEFF"/>
<stop offset="1" stop-color="#00E3FF"/>
</linearGradient>
<linearGradient id="paint2_linear_2_44" x1="3.83009" y1="1.81504" x2="14.0151" y2="12" gradientUnits="userSpaceOnUse">
<stop stop-color="#15CF74"/>
<stop offset="1" stop-color="#00F076"/>
</linearGradient>
<linearGradient id="paint3_linear_2_44" x1="14.0151" y1="12.0001" x2="3.83009" y2="22.185" gradientUnits="userSpaceOnUse">
<stop stop-color="#FF3A44"/>
<stop offset="1" stop-color="#E12653"/>
</linearGradient>
</defs>
</svg>
